<?xml version="1.0" encoding="utf-8"?>
<!-- Generator: Adobe Adobe Illustrator 24.2.0, SVG Export Plug-In . SVG Version: 6.00 Build 0)  -->
<svg version="1.1" id="Layer_1" xmlns="http://www.w3.org/2000/svg" xmlns:xlink="http://www.w3.org/1999/xlink" x="0px" y="0px"
	 viewBox="0 0 1160 900" style="enable-background:new 0 0 1160 900;" xml:space="preserve">
<style type="text/css">
	.st0{fill-rule:evenodd;clip-rule:evenodd;fill:#EBB43E;}
	.st1{fill-rule:evenodd;clip-rule:evenodd;}
</style>
<g>
	<g id="Illustrations_coffee">
		<path id="Accent" class="st0" d="M377,497.94c4.76-3.2,14.37-14.6,19.43-17.2c11.23-5.9,61.43-17.4,63.05-18
			c2.53-1,18.62-4.7,28.03-6.9c22.06-5.4,101.2-40,122.04-48.9c2.63,6.9,24.59,37.5,20.85,40.6c-12.45,10.2-34.71,23-49.08,30.4
			c-11.7,5.93-23.84,10.94-36.33,15c-14.07,4.6-23.78,9.5-37.85,14.2c-13.86,4.6,2.73,19,9.82,22c7.99,3.3,20.34,5,28.44,7.9
			c-14.37,22-26.41,48.8-28.84,75.1c-0.61,6.3-5.46,12.2-13.46,10.3c-4.15-1-42-6-48.27-7.4c-41.29-9.3-115.47-58-96.34-108
			C362.93,509.04,372.95,500.64,377,497.94z"/>
		<g id="Ink">
			<path id="ink-layer" class="st1" d="M400.07,232.84c3.04-0.3,11.03-6.3,6.88-9.4C402.7,220.24,399.67,230.64,400.07,232.84
				 M239.37,256.14c0.81-0.1,0.4-4.5-0.81-5.1c-4.05-1.8-4.35,4.8-4.45,6.6c-0.1,2.2-0.4,8.5,4.45,6.8
				C241.39,263.54,239.67,257.84,239.37,256.14 M475.97,276.54c-0.1,3.9,7.89,11.4,10.83,6.9
				C489.23,279.64,476.17,268.74,475.97,276.54 M194.64,188.74c2.33,5.8,13.66-2.1,14.17-6.4
				C209.62,173.64,194.54,182.94,194.64,188.74 M289.77,213.84c5.26-0.4,12.35-7.1,17.41-9.6c3.44-1.7,12.85-3.7,13.97-7.5
				c0.91-3.3-15.08,3.8-16.5,4.4C298.37,204.04,292.7,207.34,289.77,213.84 M688.38,167.84c4.2-3.32,9.4-5.15,14.77-5.2
				c2.73,0.1,8.4,1.7,8.6-2.9c0.3-7.5-23.58,1.7-27.32,3.1C685.75,164.54,687.07,166.14,688.38,167.84 M424.36,461.24
				c-3.14-5.1-8.7-8-12.85-12.4c1.52,7.1-1.92,13.5-4.35,20C412.82,466.24,418.59,463.74,424.36,461.24 M963.54,569.84
				c1.72-5.7,3.44-11.3,5.46-16.9c2.23-6.2,3.34-6.8-2.02-11.1l-13.36,24.9C956.78,568.17,960.11,569.21,963.54,569.84
				 M503.29,160.14c-5.87-6.6-33.5-7-30.06,7.5c1.21,5.1,7.99-0.3,12.24-1.5C489.63,165.04,501.57,164.84,503.29,160.14
				 M502.28,253.04c-0.71-1.7-2.13-7.7-4.25-8.2c-2.02-0.5-10.22,5.9-11.74,6.8c-7.59,4.8-15.08,10-22.47,15.1c2.83,0,5.46-1,8.3-1
				c3.34,0,5.77,1.3,9.01,0.6C488.11,264.64,496.31,256.94,502.28,253.04 M509.87,103.34c0.71-3,35.12,6,39.26,7.7
				c2.23,0.9,13.86,6.9,11.44-2.1c-1.42-5.1-14.88-9.1-19.23-10.5c-10.93-3.6-22.57-6.1-34.2-5.5c-2.23,0.1-19.43,1.1-12.24,7.9
				C497.32,103.14,506.23,102.44,509.87,103.34 M517.46,515.54c6.48,3.1,12.95,5.5,19.73,8c2.93,1.1,7.59,3.9,10.93,3.2
				c2.73-0.6,3.54-4.6,4.96-7.4c5.04-9.56,11.45-18.35,19.03-26.1c-3.54-2.6-21.66,8.8-26.11,10.4c-4.45,1.7-8.7,3.4-13.05,5.4
				C528.79,510.84,520.6,512.54,517.46,515.54 M631.2,430.84c9.41-4.2,18.22-11.6,25.91-18.3c8.8-7.6,16.7-15.6,23.17-25.5
				c-3.85,0.2-12.45,12.5-12.55-0.9c0-6.9,9.51-13.6,12.45-20c-7.39-4.1-14.07,20.4-22.47,14.5c-8.1-5.7,4.66-25.4,7.18-31.6
				c-4.76-3.1-31.88,31.9-35.82,36.4c-2.43,2.8-8.3,6.5-9.61,9.8c-0.81,1.9-0.91,8.1-0.51,9.9c0.81,3.7,5.06,8.2,6.88,11.7
				C628.28,421.23,630.08,425.95,631.2,430.84 M1018.49,557.14c-8.1-11.3,0.3-16.2,6.88-25.6c5.38-7.51,9.9-15.6,13.46-24.1
				c8.4-21,15.89-40.4,20.04-62.6c-5.67,2.6-9.21,12.3-12.04,17.4c-3.85,6.9-7.19,14.1-11.44,20.8c-7.89,12.5-15.79,25.9-25.81,36.7
				c-4.55,4.9-8.5,10.4-13.76,14.9c-2.43,2-6.98,3.7-8.8,6.2c-1.72,2.4,0.2,3.9-0.4,6.8c-0.61,2.9-3.64,6-4.96,8.9
				c-1.72,3.7-3.24,7.4-5.16,11c-1.73,3.05-2.79,6.42-3.14,9.9c-0.61,4.2,1.21,4.7-2.43,8.5c6.78,2.9,13.56,5.9,20.24,8.8
				c2.33,1,4.55,2,6.88,3c0.51-0.9,1.01-1.8,1.42-2.7c1.82-1.8,3.54-6.2,4.66-8.5C1008.47,576.74,1013.43,566.94,1018.49,557.14
				 M365.97,509.74c-19.23,49.9,48.27,91.9,89.76,101.2c5.77,1.3,11.33,3,17.1,4.4c6.27,1.5,11.74,1.2,18.01,1.8
				c4.96,0.5,7.29,4.3,11.94,5.3c7.79,1.7,7.29-4.1,7.89-10.3c2.33-26.3,15.99-51.7,30.36-73.7c-6.58-2.3-13.05-4.9-19.53-7.4
				c-5.57-2.2-14.07-8.3-20.04-8.6c-4.45-0.2-11.13,3.5-15.38,5.1c-7.11,2.7-14.38,5.01-21.76,6.9c-13.05,3.2-27.53,7.7-40.98,8
				c-3.85,0.1-14.57,1.9-17.3-0.5c-5.36-4.5,2.02-8.3,6.48-9.9c26.61-9.6,54.85-13.7,81.46-23.6c13.76-5.1,27.32-10.7,41.09-15.7
				c11.94-4.3,24.39-8.1,35.82-13.4c15.18-7,30.46-15.7,43.62-26c2.63-2.1,8.1-5.1,9.92-8.1c1.62-2.6,1.42,0,1.01-3.2
				c-0.2-2.3-3.04-5.4-4.25-7.5c-4.4-8.01-8.25-16.29-11.54-24.8c-20.95,8.9-40.88,21-61.63,30.5c-20.85,9.6-44.22,16.3-66.49,21.7
				c-9.51,2.3-20.34,3-29.04,7.5c-3.64,1.9-7.39,4.1-11.33,5.3c-1.21,2.2-2.33,2.6-3.44,1.3c-0.68-0.77-1.71-1.15-2.73-1
				c-2.47,0.56-4.88,1.36-7.19,2.4c-11.44,4.4-22.36,9.9-33.29,15.5c-5.16,2.7-10.42,5.3-15.38,8.3c-2.61,1.54-5.02,3.39-7.18,5.5
				C369.51,509.44,370.12,511.64,365.97,509.74 M797.78,213.34c4.86,0.1,9.31-2.5,14.37-2.4c7.99,0.2,14.27,6.3,18.82,12.2
				c9.11,11.6,6.78,25.6,2.23,38.7c-2.18,6.24-5.21,12.16-9.01,17.6c-3.34,4.8-9.31,9.4-11.64,14.7c-3.85,8.8,3.95,5.1,8.6,3.2
				c5.96-2.29,11.55-5.42,16.6-9.3c22.57-17.7,39.67-42.4,45.44-70.7c2.83-13.8,2.63-30-7.18-41.3c-8.91-10.3-24.29-13.7-37.44-11.8
				c-14.17,2.1-27.12,8-38.66,15.7c-3.34,2.2-6.48,4.7-9.61,7.1c-4.15,3.3-6.58,3.3-5.57,8.5c0.81,3.8,2.83,7.7,4.25,11.4
				C791.6,213.84,790.69,215.54,797.78,213.34 M813.16,331.14l-1.01,1.7c6.78,0.3,13.05-5.6,18.82-8.5c7.49-3.7,14.17-8.8,20.64-14
				c11.54-9.1,23.28-19.3,31.88-31.3c19.33-26.7,36.84-60.7,31.57-94.6c-5.67-36.5-38.05-50.6-72.46-45.8
				c-15.58,2.2-29.45,9-43.31,16c-6.98,3.5-12.95,8.1-19.33,12.5c-3.34,2.3-6.38,2.6-6.58,6.6c-0.2,3,5.06,9.8,6.58,12.6
				c17.41-17.6,36.23-32.2,62.64-33.1c31.37-1.1,49.89,28.3,49.79,56.5c-0.1,27.6-12.14,54.1-31.37,74c-8.7,9-17,16.2-27.73,22.8
				c-5.36,3.3-9.31,6.2-15.28,8.4c-4.25,1.5-3.74,0.7-4.86,4.6C812.25,322.74,813.16,327.74,813.16,331.14 M642.74,706.04
				c-0.48,4.95-1.33,9.87-2.53,14.7c-0.4,1.7-2.73,7.2-2.33,9.2c0.71,3.2-0.2,1.2,2.63,2.8c3.04,1.8,6.48,1.7,9.71,2.2
				c2.02,0.3,9.41,3.8,10.73,3.2c2.23-1,2.13-4.3,4.45-5.6c3.24-1.8,8.1-0.3,11.13,1.2c8.2,3.8,13.86,11.6,21.86,15.9
				c14.17,7.6,30.87,11.8,46.65,13.6c8.5,0.9,17.3,2.6,25.7,0.6c6.68-1.6,15.28-1.4,18.92-8.5c-32.08-8.7-81.06-19.4-93.71-55.8
				c-6.88,6.2-18.42,2.9-26.72,2c-9.21-0.9-17.41-0.7-25.7-4.8C642.88,699.79,642.61,702.91,642.74,706.04 M358.78,480.74
				c15.08,0.9,29.45-6.2,38.76-18.1c2.33-2.9,4.66-5.9,5.97-9.4c0.3-0.9,0.61-1.8,0.91-2.6c1.42-2.4,0.81-3.6-1.92-3.4
				c-1.52-2.1-5.36-2.8-4.25-6.5c0.81-2.8,3.85-2.9,6.58-3.8c-1.08-1.92-2.44-3.68-4.05-5.2c-4.96,4.4-13.86,12.9-17.3,2.9
				c-1.62-4.8,1.21-9.4,0.51-14.1c-0.3-1.9-2.73-6.8-4.15-8c-7.59-6.1-18.62-3.6-26.61,0c-5.57,2.5-6.78,3.7-7.69,9.3
				c-0.91,5.8-1.82,11.6-2.83,17.4c3.34-1.7,3.95-5.4,6.17-8.1c0.81,1.5,1.62,2.9,2.43,4.4c1-0.62,2.28-0.58,3.24,0.1
				c1.62,2.4,0.61,6.1,0.1,8.6c5.36-0.5,7.69,5.4,2.23,7.8c-5.57,2.5-8.1-4.3-8.3-8.7c-2.13,2.5-4.25,1.1-5.67,2.4
				c-1.42,1.3-2.02,3.9-2.53,6.8c-0.81,4.8-3.04,11.6-1.01,16.4C342.19,476.14,351.7,479.84,358.78,480.74 M796.36,252.74
				c-4.96,6.9-13.56,15.9-15.28,24.2c5.46-3.2,17.1-18.5,20.14-6.3c1.72,7-7.08,15.4-9.31,22.2c8.7-2.8,14.88-11.7,20.24-18.5
				c6.88-8.7,13.97-20.2,15.69-31.2c1.42-8.57-4.45-16.66-13.12-18.07c-0.35-0.06-0.7-0.1-1.05-0.13c-4.83-0.28-9.68,0.19-14.37,1.4
				c-2.13,0.5-5.26,1.1-7.08,2.2c-2.33,1.4-2.63,4.7-4.86,1.9l-8.8,16.5c2.93-1.1,8.91-5.5,12.14-5.1
				C795.35,242.54,796.26,249.34,796.36,252.74 M328.52,118.44c-13.34,0.54-26.52,2.96-39.16,7.2c-3.04,1-16.09,4.6-13.36,9.9
				c1.82,3.5,11.54-1.4,14.47-2.3c12.65-3.5,25.6-5.8,38.56-7.9c3.14-0.5,13.76-0.5,14.27-4.5
				C344.01,115.94,332.17,118.44,328.52,118.44 M685.04,683.24c-7,0.75-14.07,0.65-21.05-0.3c-5.97-0.7-12.04-3.1-18.01-3.1
				c0,6.3-0.4,6.3,6.27,7.7c4.66,0.9,9.41,1.5,14.17,2.1c8.3,1.2,17.61,4.4,26.11,2.7c-0.2-1.1-0.81-8.5-1.72-9.2
				C690.3,682.74,685.75,683.24,685.04,683.24 M570.28,217.44c2.02,1.2,6.58,6.2,8.91,6.3c-0.81-5.8-7.39-15.8-14.88-12.3
				c-1.82,0.9-5.67,5.2-3.95,7.1C561.28,219.74,567.86,217.44,570.28,217.44 M501.07,268.84c0.1-1,0.1-2,0.2-3
				c-2.73,1.6-6.17,2.4-8.1,4.9c2.33,1,4.66,2.1,6.98,3.1C500.46,272.14,500.76,270.44,501.07,268.84 M717.22,422.04
				c12.95,4.5,24.89,10.5,34.41,20.7c8.3,8.8,12.14,24.3,14.17,35.8c4.96,28.5-4.66,55-10.93,82.3c-3.24,13.9-7.99,27.2-12.55,40.7
				c-3.95,11.8-7.29,24.1-12.75,35.3c-4.55,9.5-10.42,18.9-14.47,28.7c-2.23,5.3-5.67,23.5-13.97,17.8c-2.23,5.8-2.83,5.3-0.4,9.4
				c1.72,2.9,7.69,7,10.42,9.4c7.49,6.4,16.9,11.6,25.6,16c15.99,8.2,33.09,14.2,49.59,21.7c7.29,3.3,15.18,7.2,13.56,16.6
				c-1.2,7.6-6.12,14.11-13.16,17.4c-6.78,3.3-16.39,5.8-23.88,6.9c-4.45,0.6-5.46-1.2-9.01-1.8c-4.05-0.7-8.7,0.7-12.85,0.6
				c-18.52-0.2-34.81-4.8-49.79-15.4c-5.36-3.8-13.26-14.1-20.24-14.1c-3.54,0-2.83,2.2-5.97,3.4c-3.85,1.6-10.63-1.4-14.37-2.1
				c-8.1-1.5-16.39-3-21.86-9.9c-5.87-7.5-3.74-16.8-1.21-25.1c2.83-9.4,7.59-18.9,9.61-28.4c0.64-2.96,0.78-6,0.4-9
				c-0.81-3.7-4.55-5.8-4.66-9.8c0-1.2,1.72-2.8,2.02-4c0.71-2.7,0.61-5.6,0.81-8.3c0.51-5,1.62-9.7,2.43-14.6
				c1.82-11.1,5.36-21.1,8.8-31.8c3.34-10.4,6.48-18.2,12.95-27.2c3.34-4.7,14.47-21.3,9.01-26.1c-7.39,14.4-16.09,25.7-27.53,37.2
				c-8.7,8.8-17.2,20.6-28.13,26.9c-11.94,6.9-26.61,10.9-39.87,14.6c-6.27,1.7-11.54,5.6-18.32,6.3c-7.4,0.65-14.87,0.04-22.06-1.8
				c-2.02-0.5-7.89-3.5-9.71-3.3c-2.73,0.3-6.58,5-9.51,5.9c-7.18,2.1-12.14-1.9-17.61-5.7c-5.97-4.1-7.69-5.1-14.57-5.6
				c-8.4-0.6-16.6-3.5-24.79-5.3c-14.47-3.1-26.82-9.5-40.07-16.2c-15.08-7.6-28.03-18.2-39.47-30.7
				c-16.8-18.3-40.07-69.1-12.75-86.9c-16.09-2.2-30.87-9.1-32.79-27.1c-1.01-9.4,0.91-19.9,3.34-29c1.11-4.2,2.43-8.3,3.64-12.4
				c0.91-1.37,1.43-2.96,1.52-4.6c0.61-2.1-0.3-3.2-2.53-3.2c-4.25-4.9-7.39-9.2-8.3-16.2c-0.3-2.2-0.51-5.6,1.11-7.5
				c0.68-0.78,1.61-1.3,2.63-1.5c2.53,0.1,3.24-1.1,2.13-3.6c1.21-3.6-0.61-6.5,3.95-8c1.42,0.3,2.93,0.6,4.35,1
				c1.82,0.8,3.04,0.2,3.64-1.8c4.25-1.7,2.33-4.1,8.1-2c3.58,1.32,6.8,3.45,9.41,6.2c3.24-2-4.15-14.7-4.35-18.7
				c-0.61-9.5,3.44-17.3,8.6-25.1c10.02-15.2,24.08-28.2,37.85-39.9c26.51-22.5,54.34-43.8,84.2-61.7
				c-12.35-8.5-26.72-10.8-41.39-6.8c-13.56,3.6-24.49,10.2-36.94,16c-11.54,5.3-23.78,7.5-27.42-7c-4.15-16.3,9.01-22.4,20.85-29.7
				c-2.93-2.2-12.65-0.6-16.29-0.4c-8.2,0.6-15.99,2.4-23.88,4c-3.85,0.8-7.29,0.6-11.03,1.4c-5.57,1.1-11.44,2.4-17.1,4
				c-13.69,3.77-26.71,9.64-38.56,17.4c-10.12,6.7-17.1,16.3-25.2,25c-9.31,10-18.11,19.8-31.88,23.5c-6.48,1.7-13.97,3.3-18.52-2.4
				c-4.25-5.3-4.45-11.6-4.35-18.1c0.3-14.3,7.29-29.7,15.38-41.3c8.8-12.6,20.54-19.9,31.67-30.1c-16.09,1.1-31.67,9.5-46.45,15.3
				c-3.14,1.2-6.27,2.6-9.41,3.7c-3.34,1.2-5.57,0.5-8.7,1c-7.29,1.3-13.56,4.3-20.64-0.5c-13.46-9.2,0-27.8,9.31-33.6
				c12.75-7.96,26.2-14.79,40.18-20.4c-7.69-8.2-1.11-20,5.97-25.8c9.01-7.4,20.34-11.6,31.17-15.6c8.5-3.1,16.9-6.1,25.81-8
				c9.31-2,20.24-5,29.65-4.7c8.91,0.3,16.7-1.3,25.7-1.5c7.49-0.2,14.98,0,22.47-0.2c20.14-0.5,40.28,0.8,60.01,2.3
				c-15.58-45,87.03-31.1,108.99-25.2c19.94,5.3,42.71,11.5,59.4,24.2c7.06,5.5,13.79,11.41,20.14,17.7
				c9.31,9.2,14.37,21.4,19.33,33.3c12.45-6,24.29-12.6,37.95-15.6c12.95-2.8,26.21-6.7,39.26-8.8c9.92-1.6,24.29-2.7,32.59,4.2
				c9.01,7.5,13.76,19.2,19.13,29.2c25.91-24.3,54.85-42.1,91.89-40.9c36.23,1.2,60.01,32,64.36,65.5
				c4.86,36.9-11.84,75.4-34.31,104c-10.12,12.8-20.54,25.2-34.2,34.7c-6.78,4.7-13.86,9.9-21.25,13.6
				c-3.78,1.86-7.67,3.49-11.64,4.9c-1.75,0.67-3.54,1.24-5.36,1.7c-5.16,1.2-4.15-0.4-6.07,4.1c-1.52,3.6-1.42,9.9-2.02,13.9
				c-0.81,4.6-1.21,9.2-2.33,13.7c-1.92,7.8-3.95,15.4-6.38,23.1c-4.63,14.65-10.77,28.79-18.32,42.2c6.38,2.8,15.38,3,22.26,3.9
				c7.63,1.09,15.17,2.73,22.57,4.9c15.48,4.3,29.25,7.9,44.02,14.3c15.28,6.6,28.84,16.6,43.62,24.5
				c13.56,7.3,27.22,16.4,39.77,25.1c2.67,1.85,5.09,4.03,7.18,6.5c1.83,2.04,3.86,3.88,6.07,5.5c1.32,1,5.16,6.3,6.58,6.5
				c2.63,0.4,2.23-1.6,4.35-4.4c4.35-5.8,10.52-10.2,14.88-16.1c3.53-4.92,7.32-9.66,11.33-14.2c9.33-10.3,17.35-21.68,23.88-33.9
				c3.44-6.4,7.19-12.5,10.93-18.5s10.42-13.9,17.91-13.6c-0.61-3.1-2.53-3.6,0.81-5.4c2.13-1.2,6.27,0.7,7.89,2
				c4.35,3.2,4.55,9.5,4.25,14.3c-0.8,12.13-3.12,24.12-6.88,35.7c-4.35,13.8-9.71,26.1-15.69,39.3
				c-4.76,10.5-10.52,24.4-22.26,29.3c7.89,11.1,4.05,20.1-1.21,31.9c-3.85,8.6-8.91,17.5-16.6,23.2c-8.7,6.4-18.11,1-27.22-3.3
				c-5.46-2.6-22.36-8.6-18.92-16.5c-4.25-0.6-6.88-3.6-10.63-4.5c-4.05-1-3.34,0.6-7.69,1.3c-3.24,0.5-8.2-2.4-11.33-3.5
				c-5.16-1.7-10.32-3.5-15.48-5.3c-14.57-4.9-28.84-9.8-43.51-13.8c-27.32-7.4-54.95-11.6-82.17-18.1c-5.46-1.3-10.83-2.6-16.6-3.6
				c-1.21-0.2-7.29-0.6-7.99-1.8c-1.32-2.2,2.73-14.3,3.04-16.8c2.15-16.71,1.6-33.66-1.62-50.2c-1.32-6.7-7.18-15.3-7.08-21.9
				c0-4.4,3.95-9.2,6.27-13.1c5.67-9.8,11.64-20.4,15.89-30.6c6.48-15.6,10.42-33.2,13.26-49.9c1.52-8.7,3.24-18.2,3.64-27
				c0.3-6.7-0.2-13.8,0.71-20.7c-3.74,0.4-9.11,2.3-12.45,0.2c-4.25-2.6-5.46-10-4.86-14.5c-14.67,2.5-14.17-11.2-13.26-22
				c-26.51,0,7.39-38.9,11.64-47.3c1.92-3.8,1.92,0.5,1.01-5.5c-0.4-2.6-2.23-5.5-3.24-7.9c-2.23-5.2-4.66-10.4-7.18-15.5
				c-5.45-10.73-11.57-21.11-18.32-31.1c-6,4.2-11.53,9.03-16.5,14.4c3.24-8.4,13.16-18.7,8.91-28.2c-3.95-8.8-17-8.2-24.79-6.6
				c-21.05,4.4-41.19,10.8-61.22,18.1c6.17,3.5,15.69,0.8,21.86-1.9c7.59-3.3,15.89-6.8,24.08-8.6c7.18-1.5,16.6-1,14.57,8.5
				c-1.72,7.7-9.31,15.2-14.37,21c-11.13,12.7-25.1,22.6-38.86,32.5c-14.77,10.6-28.94,22.1-43.92,32.4
				c-27.02,18.6-55.96,34.8-83.89,52.1c-14.47,9-30.87,16.3-46.65,23c-17.3,7.4-33.9,15.2-51.81,21c-9.92,3.2-19.83,5.9-29.65,9.6
				c-6.17,2.3-16.8,6.9-20.85,0.1c-8.2-13.9,21.55-32.1,29.75-40.6c5.67,5.4-22.16,25.5-19.94,33.4c1.72,6.2,8.3-1.8,11.54-3.5
				c5.16-2.7,11.23-4.1,16.39-7.2c10.63-6.4,23.17-13.7,25.6-26.9c-1.72-1.8-1.62-3.4,0.1-4.9c0.8-0.88,1.41-1.89,1.82-3
				c0.63-2.27,1.1-4.57,1.42-6.9c1.21-6.5-1.82-12.6,1.01-18.9c-16.39,12.3-32.08,26.1-47.66,39.4c-13.97,11.9-28.54,27.5-33.6,45.3
				c-0.61,2.3-1.72,4.9-1.62,7.3c0.2,4.7,0.71,3.7,4.55,5.2s9.41,1.4,13.56,1.5c2.33,0.1,12.85-2.4,10.83,2.7
				c-1.21,2.9-8.5,2.8-11.13,3.1c-6.58,0.7-10.12,0-6.98,7c1.42,3.1,4.25,5.3,6.48,7.7c6.17,6.8,9.51,17.2,14.37,25.1
				c5.57,9.1,11.64,17.7,18.01,26.2c2.63,3.5,6.17,10,9.92,12.5c3.44,2.3-0.61,2.1,5.16,1.2c2.53-0.4,4.76-2,7.19-2.6
				c14.27-3.4,28.94-7.3,43.72-11.5c18.82-5.4,38.66-10,56.67-17.8c16.09-7,32.08-15.3,48.37-22.4c4.76-2.1,9.51-3.4,13.26-7.2
				c4.45-4.6,8.2-10.6,12.24-15.5c6.98-8.4,13.46-16.9,20.95-24.9c5.57-5.9,15.58-16.9,23.48-19.3c15.08-4.5,6.98,18.1,5.06,23.9
				c3.54,0.8,5.36-3.7,9.51-2.4c4.96,1.5,5.46,8.1,6.07,12.2c0.2,1.1-1.32,3.1-0.91,4.1c0.2,0.3,3.44,2.2,4.05,3.1
				c2.23,3.2,1.82,7.1,1.01,10.5c-4.45,17.8-20.24,30.8-31.88,44c5.16-1,9.11-3.9,13.97-5.4c4.66-1.4,9.21-1.3,13.86-1.7
				c4.86-0.4,9.51-2.2,14.47-2.3C707.1,419.94,712.06,421.44,717.22,422.04"/>
			<path id="ink-layer-2" class="st1" d="M167.01,261.84c-2.83,1.9-3.64,3.7-3.74,7.9c0,1.8,0.1,8.3,2.53,8
				C168.13,277.54,167.01,264.04,167.01,261.84 M152.24,272.44c1.32-13.7,6.38-27.6,18.32-36.2c2.93-2.1,6.27-2,9.51-3.4
				c1.92-0.8,5.06-4.5,7.18-4.1c8.1,1.6-1.21,12.3-2.63,15.1c-4.25,8.7-3.95,16.3-3.85,25.7c0.1,7.1,1.62,19.1-2.02,25.6
				c-3.85,6.9-12.24,2.4-17-1.7C155.88,288.44,151.43,280.24,152.24,272.44"/>
			<path id="ink-layer-3" class="st1" d="M294.83,312.94c0,7.6,6.27,2.5,6.07-3C300.59,301.94,294.52,306.94,294.83,312.94
				 M328.22,270.64c-6.88,6.1-12.14,9.5-13.46,18.9c-1.01,7.1,0,14.2,0,21.3c0.1,12-9.71,24.6-20.34,10.9
				c-7.69-10-4.96-25.8,1.32-35.9c3.37-5.55,7.97-10.27,13.46-13.8C313.34,269.54,324.78,264.64,328.22,270.64"/>
			<path id="ink-layer-4" class="st1" d="M232.18,455.84c-0.81,1.9-2.63,9.5,1.11,7.7C236.74,462.04,234.51,457.04,232.18,455.84
				 M212.05,432.34c-0.61-2.9-0.3-20.8,4.66-19.4c3.95,1.1,4.55,10.2,6.17,13.4c5.97,11.9,19.63,19.3,24.29,31.6
				c5.26,13.7-10.63,14.1-19.13,8.6C218.12,459.94,212.35,443.84,212.05,432.34"/>
			<path id="ink-layer-5" class="st1" d="M199.8,358.84c2.13-2.9,2.43-4.4,1.11-7C199.4,353.54,199.7,355.94,199.8,358.84
				 M201.32,371.74c-11.33,1.3-11.84-19.3-9.92-26.4c1.77-5.87,4.58-11.39,8.3-16.3c0.71-0.9,7.19-9.2,8.5-9.3
				c4.96-0.1,3.54,5.4,3.04,7.5c-1.73,6.18-2.38,12.6-1.92,19C209.82,353.84,213.46,372.04,201.32,371.74"/>
			<path id="ink-layer-6" class="st1" d="M714.79,193.44c-16.19,13.4-31.47,27.9-49.08,39.6c-8.6,5.7-17.61,10.8-26.21,16.6
				c-4.31,3-8.88,5.61-13.66,7.8c-4.25,1.9-7.08,2.2-3.54-2.4c2.33-3.1,7.69-5.2,10.93-7.4c4.96-3.3,9.71-7.1,14.88-10
				c9.21-5.2,18.42-9.5,26.92-15.9c7.59-5.7,15.38-11.3,22.57-17.3C700.73,201.94,710.95,189.94,714.79,193.44"/>
			<path id="ink-layer-7" class="st1" d="M715.1,241.84c7.29,6.1-10.93,23-15.08,26.8c-4.35,4-9.21,7.6-13.97,11.2
				c-1.72,1.3-10.83,9.7-13.16,9c-4.55-1.3,1.42-6.8,3.04-8.2c5.06-4.6,10.22-9.1,15.18-13.8c4.45-4.3,9.31-8.2,13.56-12.6
				C708.22,250.54,711.15,244.54,715.1,241.84"/>
			<path id="ink-layer-8" class="st1" d="M176.42,489.54c-1.92-4.3-5.26,0.5-3.54,2.6C174.5,494.24,176.12,490.44,176.42,489.54
				 M165.29,480.94c1.01-6.4,3.34-9.9,9.41-4.5c4.15,3.7,12.55,14.4,11.74,20.2c-1.01,7.6-9.51,5.5-13.97,1.5
				C168.03,494.14,166,486.64,165.29,480.94"/>
			<path id="ink-layer-9" class="st1" d="M178.55,606.74c-7.39-0.6-13.76-6.2-16.9-12.8c-2.63-5.6-5.16-14.5,4.15-11.6
				C171.87,584.24,195.35,607.64,178.55,606.74"/>
			<path id="ink-layer-10" class="st1" d="M268.62,570.54c-5.77,1.3-11.44-2.4-14.98-6.7c-2.23-2.6-7.29-11.8-4.76-15.6
				c3.64-5.3,9.01,5.3,10.93,7.4C262.75,559.04,272.36,565.34,268.62,570.54"/>
			<path id="ink-layer-11" class="st1" d="M273.88,426.84c-4.45-2.1-8.7-4.6-10.52-9.5c-1.11-3.1-2.13-12.6,3.04-12.5
				C272.26,404.84,285.82,425.84,273.88,426.84"/>
			<path id="ink-layer-12" class="st1" d="M242.3,328.84c6.07-0.1,7.49,3.2,8.3,7.9c0.61,3.2,3.34,14.1,0.51,16.3
				c-4.05,3.2-10.63-4.1-11.94-7C236.33,340.14,240.08,334.34,242.3,328.84"/>
			<path id="ink-layer-13" class="st1" d="M345.83,654.94c2.93,1.3,9.61,4.2,7.08,8.8c-2.63,4.8-10.32,0.1-13.16-1.9
				c-1.21-0.9-8.8-6.6-8.5-8.5C331.96,649.24,342.39,654.54,345.83,654.94"/>
			<path id="ink-layer-14" class="st1" d="M152.44,358.34c2.02,5,4.25,22-6.27,12.8c-3.24-2.8-3.74-6.3-2.63-10.2
				C145.15,355.34,147.48,356.44,152.44,358.34"/>
			<path id="ink-layer-15" class="st1" d="M712.26,294.84c-2.33-4.7,3.44-7.8,6.48-10.8c2.02-2,10.52-12.8,13.26-12.2
				C737.77,273.04,715.1,292.74,712.26,294.84"/>
			<path id="ink-layer-16" class="st1" d="M242.2,636.84c5.46-0.9,6.78,5.2,10.32,7.8c1.52,1.1,6.78,2.1,5.67,4.5
				C255.46,655.54,241.9,641.14,242.2,636.84"/>
			<path id="ink-layer-17" class="st1" d="M288.75,494.04c3.74-1.6,14.77,6.9,11.54,10.5C295.63,509.94,288.96,496.94,288.75,494.04
				"/>
			<path id="ink-layer-18" class="st1" d="M368.6,615.74c-2.73,0.3-14.37-3.3-10.12-8.2C361.51,604.14,369.61,612.74,368.6,615.74"
				/>
			<path id="ink-layer-19" class="st1" d="M229.05,592.54c-2.73,1.1-12.65-1.1-9.51-5.4C222.47,583.14,229.05,589.14,229.05,592.54"
				/>
			<path id="ink-layer-20" class="st1" d="M310,610.84c2.92-0.41,5.63,1.6,6.04,4.49c0.01,0.1,0.03,0.2,0.03,0.31
				C312.03,616.24,310.81,615.24,310,610.84"/>
			<path id="ink-layer-21" class="st1" d="M429.52,93.84l-0.3,6L429.52,93.84"/>
			<path id="ink-layer-22" class="st1" d="M1056.64,433.84c0.61,2.2-0.3,2.6-2.83,1.1C1054.72,434.54,1055.73,434.14,1056.64,433.84
				"/>
			<path id="ink-layer-23" class="st1" d="M806.88,447.34c-1.72,1.3-3.34,1.5-5.06-0.1C803.44,447.24,805.16,447.34,806.88,447.34"
				/>
			<path id="ink-layer-24" class="st1" d="M768.93,276.84c0,1.7-0.1,3.3-0.1,5C768.93,280.14,768.93,278.44,768.93,276.84"/>
			<path id="ink-layer-25" class="st1" d="M856.47,122.54h-5.06C853.04,121.94,854.84,121.94,856.47,122.54"/>
			<path id="ink-layer-26" class="st1" d="M361.62,102.14c-1.72,0.1-3.34,0.2-5.06,0.3C358.17,102.34,359.89,102.24,361.62,102.14"
				/>
			<path id="ink-layer-27" class="st1" d="M403.11,102.44c-1.32-0.1-2.73-0.2-4.05-0.3C400.37,102.24,401.69,102.34,403.11,102.44"
				/>
			<path id="ink-layer-28" class="st1" d="M425.37,104.04c-1.27,0.65-2.78,0.65-4.05,0H425.37"/>
			<path id="ink-layer-29" class="st1" d="M304.94,106.84c-1.72,0.3-3.34,0.7-5.06,1C301.5,107.44,303.22,107.14,304.94,106.84"/>
			<path id="ink-layer-30" class="st1" d="M769.95,513.84c0,1-0.1,2-0.1,3C769.95,515.84,769.95,514.84,769.95,513.84"/>
			<path id="ink-layer-31" class="st1" d="M212.35,432.84c-0.02,0.67,0.02,1.34,0.1,2C212.37,434.17,212.34,433.5,212.35,432.84"/>
			<path id="ink-layer-32" class="st1" d="M1062.91,429.24h-5.06C1059.34,428.09,1061.43,428.09,1062.91,429.24"/>
			<path id="ink-layer-33" class="st1" d="M716.82,422.14c-1.32-0.2-2.73-0.4-4.05-0.7C714.09,421.74,715.4,421.94,716.82,422.14"/>
			<path id="ink-layer-34" class="st1" d="M346.44,654.84c-1.72-0.3-3.34-0.7-5.06-1L346.44,654.84z"/>
			<path id="ink-layer-35" class="st1" d="M686.96,367.84c0-1-0.1-2-0.1-3C686.96,365.84,686.96,366.84,686.96,367.84"/>
			<path id="ink-layer-36" class="st1" d="M366.68,102.44c-1.01-0.1-2.02-0.2-3.04-0.4C364.65,102.24,365.66,102.34,366.68,102.44"
				/>
			<path id="ink-layer-37" class="st1" d="M532.64,77.74l-3.04-0.9L532.64,77.74"/>
			<path id="ink-layer-38" class="st1" d="M653.06,752.24c0.71,0,1.32,0.1,2.02,0.1C654.38,752.34,653.67,752.24,653.06,752.24"/>
			<path id="ink-layer-39" class="st1" d="M188.57,215.24c1.01,0,2.02,0.1,3.04,0.1C190.59,215.34,189.58,215.24,188.57,215.24"/>
			<path id="ink-layer-40" class="st1" d="M867.6,123.44c-1.72-0.1-3.34-0.2-5.06-0.4C864.16,123.24,865.88,123.34,867.6,123.44"/>
			<path id="ink-layer-41" class="st1" d="M812.35,324.84c0,1.7,0.1,3.3,0.1,5C812.45,328.14,812.45,326.44,812.35,324.84"/>
			<path id="ink-layer-42" class="st1" d="M688.48,682.84c-1.32,0-2.73,0-4.05-0.1C685.75,682.74,687.17,682.84,688.48,682.84"/>
			<path id="ink-layer-43" class="st1" d="M832.18,153.04c2.02-0.2,4.05-0.4,6.07-0.7C836.33,154.04,834.21,152.94,832.18,153.04"/>
			<path id="ink-layer-44" class="st1" d="M677.35,683.34c-1.01,0-2.02-0.1-3.04-0.1C675.33,683.24,676.34,683.34,677.35,683.34"/>
			<path id="ink-layer-45" class="st1" d="M642.34,700.84c0,1.7,0.1,3.3,0.2,5C642.44,704.14,642.44,702.44,642.34,700.84"/>
			<path id="ink-layer-46" class="st1" d="M796.76,214.44c1.32-0.1,2.73-0.2,4.05-0.4C799.6,214.94,798.08,214.44,796.76,214.44"/>
			<path id="ink-layer-47" class="st1" d="M354.53,480.44c1.32,0.2,2.73,0.5,4.05,0.7C357.16,480.94,355.85,480.64,354.53,480.44"/>
			<path id="ink-layer-48" class="st1" d="M565.02,217.34c1.72-1.4,3.34-1.3,5.06,0H565.02"/>
			<path id="ink-layer-49" class="st1" d="M501.67,267.84c0-0.7,0.1-1.3,0.1-2C501.79,266.5,501.75,267.17,501.67,267.84"/>
			<path id="ink-layer-50" class="st1" d="M349.78,457.84c2.23,0.7,6.68,3,9.31,2.7c2.02-0.2,3.74-2.7,5.77-2.7
				c5.36,0,4.35,6.2,1.82,9.4C359.59,476.14,343.8,466.54,349.78,457.84"/>
			<path id="ink-layer-51" class="st1" d="M371.74,425.84c7.29,1.9,3.64,17.8-2.53,18.9c-7.29,1.3-8.5-11.7-7.08-16.4
				c3.74,2.2,1.42,10,6.17,7.9C371.23,434.84,370.82,428.44,371.74,425.84"/>
		</g>
	</g>
</g>
</svg>
